<?xml version="1.0" encoding="iso-8859-1"?>
<!-- Uploaded to: SVG Repo, www.svgrepo.com, Generator: SVG Repo Mixer Tools -->
<svg fill="#000000" height="800px" width="800px" version="1.1" id="Layer_1" xmlns="http://www.w3.org/2000/svg" xmlns:xlink="http://www.w3.org/1999/xlink" 
	 viewBox="0 0 511.999 511.999" xml:space="preserve">
<g>
	<g>
		<path d="M256.001,0C114.509,0,0,114.497,0,255.999C0,397.49,114.497,511.999,255.999,511.999
			c141.492,0,255.999-114.496,255.999-255.999C512,114.511,397.503,0,256.001,0z M256.001,478.252
			c-122.55,0-222.252-99.702-222.252-222.252S133.451,33.748,256.001,33.748s222.251,99.701,222.251,222.251
			S378.55,478.252,256.001,478.252z"/>
	</g>
</g>
<g>
	<g>
		<path d="M197.58,138.901c-26.221,0-47.554,21.332-47.554,47.554v139.09c0,26.221,21.332,47.553,47.554,47.553
			s47.553-21.332,47.553-47.553V186.456C245.134,160.234,223.801,138.901,197.58,138.901z M211.385,325.546
			c0,7.612-6.193,13.805-13.805,13.805s-13.805-6.193-13.805-13.805v-139.09c0-7.612,6.193-13.805,13.805-13.805
			s13.805,6.193,13.805,13.805V325.546z"/>
	</g>
</g>
<g>
	<g>
		<path d="M314.42,138.901c-26.222,0-47.554,21.332-47.554,47.554v139.09c0,26.221,21.332,47.553,47.554,47.553
			s47.554-21.332,47.554-47.553V186.456C361.973,160.234,340.641,138.901,314.42,138.901z M328.225,325.546
			c0,7.612-6.194,13.805-13.805,13.805s-13.805-6.193-13.805-13.805v-139.09c0-7.612,6.194-13.805,13.805-13.805
			s13.805,6.193,13.805,13.805V325.546z"/>
	</g>
</g>
</svg>