<?xml version="1.0" encoding="iso-8859-1"?>
<!-- Uploaded to: SVG Repo, www.svgrepo.com, Generator: SVG Repo Mixer Tools -->
<svg fill="#000000" height="800px" width="800px" version="1.1" id="Layer_1" xmlns="http://www.w3.org/2000/svg" xmlns:xlink="http://www.w3.org/1999/xlink" 
	 viewBox="0 0 512 512" xml:space="preserve">
<g>
	<g>
		<path d="M256,0C114.51,0,0,114.497,0,256c0,141.49,114.495,256,256,256c141.491,0,256-114.497,256-256
			C512,114.509,397.503,0,256,0z M256,478.609c-122.746,0-222.609-99.862-222.609-222.609S133.252,33.391,256,33.391
			S478.609,133.254,478.609,256S378.746,478.609,256,478.609z"/>
	</g>
</g>
<g>
	<g>
		<path d="M358.185,241.544l-155.778-90.01c-11.128-6.426-25.048,1.63-25.048,14.456V346.01c0,12.922,14.01,20.833,25.048,14.456
			l155.778-90.01C369.301,264.032,369.287,247.96,358.185,241.544z M210.75,317.081V194.919L316.461,256L210.75,317.081z"/>
	</g>
</g>
</svg>